{"title":"Saturday.Night.Live.S01.DVDRip.XviD-DIMENSION","uid":13251638,"size":17952806912,"categoryP":"video","categoryS":"tv_shows","magnet":"?xt=urn:btih:e277e6a29050323767c1e5cf26522b15449011a2&amp;dn=Saturday.Night.Live.S01.DVDRip.XviD-DIMENSION&amp;tr=udp%3A%2F%2Ftracker.leechers-paradise.org%3A6969&amp;tr=udp%3A%2F%2Fzer0day.ch%3A1337&amp;tr=udp%3A%2F%2Fopen.demonii.com%3A1337&amp;tr=udp%3A%2F%2Ftracker.coppersurfer.tk%3A6969&amp;tr=udp%3A%2F%2Fexodus.desync.com%3A6969","seeders":0,"leechers":1,"uploader":"imPROvise","files":26,"time":1453179813,"description":"1 George Carlin/Janis Ian &amp; Billy Preston 1975-10-11\r\n2 Paul Simon/Simon &amp; Garfunkel, Randy Newman, Phoebe Snow 1975-10-18\r\n3 Rob Reiner/Joe Cocker 1975-10-25\r\n4 Candice Bergen/Esther Phillips 1975-11-08\r\n5 Robert Klein/ABBA, Loudon Wainwright III 1975-11-15\r\n6 Lily Tomlin/Howard Shore &amp; the All Nurse Band 1975-11-22\r\n7 Richard Pryor/Gil-Scott Heron, Thalmus Rasulala 1975-12-13\r\n8 Candice Bergen/The Stylistics, Martha Reeves 1975-12-20\r\n9 Elliott Gould/Anne Murray 1976-01-10\r\n10 Buck Henry/Bill Withers, Toni Basil 1976-01-17\r\n11 Peter Cook, Dudley Moore/Neil Sedaka 1976-01-24\r\n12 Dick Cavett/Marshall Efron, Jimmy Cliff 1976-01-31\r\n13 Peter Boyle/Al Jarreau 1976-02-14\r\n14 Desi Arnaz/Desi Arnaz, Jr. 1976-02-21\r\n15 Jill Clayburgh/Andy Kaufman 1976-02-28\r\n16 Anthony Perkins/Betty Carter 1976-03-13\r\n17 Ron Nessen/Toni Basil, Patti Smith 1976-04-17\r\n18 Raquel Welch/Phoebe Snow, John Sebastian 1976-04-24\r\n19 Madeline Kahn/Carly Simon 1976-05-08\r\n20 Dyan Cannon/Leon Russell 1976-05-15\r\n21 Buck Henry/Gordon Lightfoot 1976-05-22\r\n22 Elliott Gould/Leon Redbone 1976-05-29\r\n23 Louise Lasser/Preservation Hall Jazz Band 1976-07-24\r\n24 Kris Kristofferson/Rita Coolidge 1976-07-31\r\n\r\nFormat: AVI\r\nFormat/Info: Audio Video Interleave\r\nFile size: 699 MiB\r\nDuration: 1h 5mn\r\nOverall bit rate mode: Variable\r\nOverall bit rate: 1 489 Kbps\r\nWriting application: Nandub v1.0rc2\r\nWriting library: Nandub build 1853/release\r\n\r\nVideo\r\nID: 0\r\nFormat: MPEG-4 Visual\r\nFormat profile: Advanced   \r\nFormat settings, BVOP: 2\r\nFormat settings, QPel: No\r\nFormat settings, GMC: No warppoints\r\nFormat settings, Matrix: Default (H.263)\r\nCodec ID: XVID\r\nCodec ID/Hint: XviD\r\nDuration: 1h 5mn\r\nBit rate: 1 396 Kbps\r\nWidth: 496 pixels\r\nHeight: 368 pixels\r\nDisplay aspect ratio: 4:3\r\nFrame rate: 29.970 fps\r\nColor space: YUV\r\nChroma subsampling: 4:2:0\r\nBit depth: 8 bits\r\nScan type: Progressive\r\nCompression mode: Lossy\r\nBits/(Pixel*Frame): 0.255\r\nStream size: 656 MiB (94%)\r\nWriting library: XviD 1.1.0 Beta2 (UTC 2005-04-04)\r\n\r\nAudio\r\nID: 1\r\nFormat: MPEG Audio\r\nFormat version: Version 1\r\nFormat profile: Layer 3\r\nCodec ID: 55\r\nCodec ID/Hint: MP3\r\nDuration: 1h 5mn\r\nBit rate mode: Variable\r\nBit rate: 78.8 Kbps\r\nMinimum bit rate: 48.0 Kbps\r\nChannel(s): 1 channel\r\nSampling rate: 48.0 KHz\r\nCompression mode: Lossy\r\nStream size: 37.0 MiB (5%)\r\nAlignment: Aligned on interleaves\r\nInterleave, duration: 24 ms (0.72 video frame)\r\nInterleave, preload duration: 224 ms\r\nWriting library: LAME3.95\r\nEncoding settings: -m m -V 4 -q 2 -lowpass 18 --vbr-old -b 48","torrent":{"xt":"urn:btih:e277e6a29050323767c1e5cf26522b15449011a2","amp;dn":"Saturday.Night.Live.S01.DVDRip.XviD-DIMENSION","amp;tr":["udp%3A%2F%2Ftracker.leechers-paradise.org%3A6969","udp%3A%2F%2Fzer0day.ch%3A1337","udp%3A%2F%2Fopen.demonii.com%3A1337","udp%3A%2F%2Ftracker.coppersurfer.tk%3A6969","udp%3A%2F%2Fexodus.desync.com%3A6969"],"infoHash":"e277e6a29050323767c1e5cf26522b15449011a2","infoHashBuffer":{"type":"Buffer","data":[226,119,230,162,144,80,50,55,103,193,229,207,38,82,43,21,68,144,17,162]},"announce":[],"urlList":[]}}